<?xml version="1.0" encoding="UTF-8" standalone="no"?>
<!DOCTYPE svg PUBLIC "-//W3C//DTD SVG 1.1//EN" "http://www.w3.org/Graphics/SVG/1.1/DTD/svg11.dtd">
<!-- Created with Vectornator (http://vectornator.io/) -->
<svg height="100%" stroke-miterlimit="10" style="fill-rule:nonzero;clip-rule:evenodd;stroke-linecap:round;stroke-linejoin:round;" version="1.1" viewBox="62 62.8806 900 898.239" width="100%" xml:space="preserve" xmlns="http://www.w3.org/2000/svg" xmlns:vectornator="http://vectornator.io" xmlns:xlink="http://www.w3.org/1999/xlink">
<defs/>
<clipPath id="ArtboardFrame">
<rect height="898.239" width="900" x="62" y="62.8806"/>
</clipPath>
<g clip-path="url(#ArtboardFrame)" id="Layer" vectornator:layerName="Layer">
<path d="M166.795 67.2838C160.337 70.2192 154.172 75.2094 148.301 82.2544C142.431 89.2994 136.266 93.409 129.808 94.5832C123.35 95.7573 115.718 99.5734 106.912 106.031C98.1057 112.489 91.6477 119.241 87.5382 126.286C83.4286 133.331 80.7867 140.376 79.6125 147.421C78.4384 154.466 75.7965 160.924 71.6869 166.795C67.5773 172.665 64.9354 178.536 63.7613 184.407C62.5871 190.278 62.2935 196.149 62.8806 202.02C63.4677 207.89 64.9354 213.174 67.2838 217.871C69.6321 222.568 69.3386 228.732 66.4031 236.364C63.4677 243.996 63.1742 252.215 65.5225 261.022C67.8708 269.828 70.2192 275.699 72.5675 278.634C74.9159 281.569 78.7319 284.505 84.0157 287.44C89.2994 290.376 94.8767 292.137 100.748 292.724C106.618 293.311 112.489 300.063 118.36 312.978C124.231 325.894 131.276 336.168 139.495 343.8C147.714 351.432 148.008 367.577 140.376 392.235C132.744 416.892 127.46 442.137 124.524 467.969C121.589 493.8 121.002 518.458 122.763 541.941C124.524 565.425 127.166 584.798 130.689 600.063C134.211 615.327 138.321 629.417 143.018 642.333C147.714 655.249 145.366 664.348 135.973 669.632C126.579 674.916 117.773 681.667 109.554 689.886C101.335 698.106 92.5284 711.022 83.135 728.634C73.7417 746.247 67.8708 762.391 65.5225 777.068C63.1742 791.746 62 816.11 62 850.16C62 884.211 64.0548 907.108 68.1644 918.849C72.274 930.591 76.6771 938.81 81.3738 943.507C86.0705 948.204 92.5284 952.313 100.748 955.836C108.967 959.358 117.773 961.119 127.166 961.119C136.56 961.119 145.659 959.358 154.466 955.836C163.272 952.313 173.546 952.313 185.288 955.836C197.029 959.358 209.065 961.119 221.393 961.119C233.722 961.119 244.877 959.358 254.857 955.836C264.838 952.313 275.405 952.313 286.56 955.836C297.714 959.358 307.988 961.119 317.382 961.119C326.775 961.119 334.994 959.652 342.039 956.716C349.084 953.781 356.129 948.497 363.174 940.865C370.219 933.233 374.916 926.188 377.264 919.73C379.613 913.272 380.787 905.346 380.787 895.953C380.787 891.256 380.787 886.56 380.787 881.863C394.29 885.092 407.793 888.321 421.295 891.55C448.301 898.008 475.894 901.53 504.074 902.117C532.254 902.705 558.086 900.943 581.569 896.834C605.053 892.724 625.014 887.44 641.452 880.982C657.89 874.524 670.513 871.883 679.319 873.057C688.125 874.231 692.822 876.873 693.409 880.982C693.996 885.092 697.519 892.724 703.977 903.879C710.434 915.033 718.36 924.72 727.753 932.939C737.147 941.159 747.421 947.616 758.575 952.313C769.73 957.01 783.233 959.652 799.084 960.239C814.935 960.826 826.971 959.945 835.19 957.597C843.409 955.249 853.096 950.552 864.25 943.507C875.405 936.462 884.798 928.243 892.431 918.849C900.063 909.456 905.64 899.769 909.162 889.789C912.685 879.808 916.501 874.818 920.611 874.818C924.72 874.818 929.71 873.644 935.581 871.295C941.452 868.947 946.149 866.012 949.671 862.489C953.194 858.967 956.129 854.564 958.477 849.28C960.826 843.996 962 838.125 962 831.667C962 825.209 960.532 819.339 957.597 814.055C954.661 808.771 954.661 799.084 957.597 784.994C960.532 770.904 962 756.227 962 740.963C962 725.699 959.065 705.151 953.194 679.319C950.258 666.403 947.323 653.487 944.387 640.571C933.233 643.213 922.078 645.855 910.924 648.497C899.769 651.139 888.614 653.781 877.46 656.423C880.395 647.029 883.331 637.636 886.266 628.243C892.137 609.456 896.54 590.376 899.476 571.002C902.411 551.628 903.585 529.025 902.998 503.194C902.411 477.362 898.888 450.356 892.431 422.176C889.202 408.086 885.973 393.996 882.744 379.906C885.386 379.906 888.027 379.906 890.669 379.906C895.953 379.906 902.411 378.732 910.043 376.384C917.675 374.035 925.014 370.806 932.059 366.697C939.104 362.587 945.855 357.303 952.313 350.845C958.771 344.387 959.945 332.352 955.836 314.74C951.726 297.127 948.791 271.002 947.029 236.364C945.268 201.726 941.452 177.068 935.581 162.391C929.71 147.714 923.546 135.973 917.088 127.166C910.63 118.36 901.237 108.967 888.908 98.9863C876.579 89.0059 865.425 81.6673 855.444 76.9706C845.464 72.274 835.483 68.7515 825.503 66.4031C815.523 64.0548 802.9 62.8806 787.636 62.8806C772.372 62.8806 757.695 64.9354 743.605 69.045C729.515 73.1546 717.479 78.1448 707.499 84.0157C697.519 89.8865 688.125 96.9315 679.319 105.151C670.513 113.37 663.468 121.883 658.184 130.689C652.9 139.495 635.875 140.376 607.108 133.331C578.341 126.286 549.573 122.47 520.806 121.883C492.039 121.295 468.556 122.47 450.356 125.405C432.157 128.341 413.37 133.037 393.996 139.495C374.622 145.953 363.468 145.072 360.532 136.853C357.597 128.634 353.194 121.295 347.323 114.838C341.452 108.38 335.288 103.389 328.83 99.8669C322.372 96.3444 316.207 93.9961 310.337 92.8219C304.466 91.6477 299.476 88.1252 295.366 82.2544C291.256 76.3836 286.56 71.9804 281.276 69.045C275.992 66.1096 267.773 64.3483 256.618 63.7613C245.464 63.1742 236.658 64.3483 230.2 67.2838C223.742 70.2192 217.577 70.2192 211.706 67.2838C205.836 64.3483 198.497 62.8806 189.691 62.8806C180.885 62.8806 173.252 64.3483 166.795 67.2838ZM194.975 91.0607C201.432 92.2348 207.597 95.7573 213.468 101.628C216.403 104.564 219.339 107.499 222.274 110.434C224.622 107.793 226.971 105.151 229.319 102.509C234.016 97.225 240.18 93.7025 247.812 91.9413C255.444 90.18 262.196 91.0607 268.067 94.5832C273.937 98.1057 278.341 103.096 281.276 109.554C284.211 116.012 288.908 119.241 295.366 119.241C301.824 119.241 307.695 120.415 312.978 122.763C318.262 125.112 322.665 128.047 326.188 131.569C329.71 135.092 332.646 139.495 334.994 144.779C337.342 150.063 338.517 155.346 338.517 160.63C338.517 165.914 340.865 171.491 345.562 177.362C350.258 183.233 352.313 189.984 351.726 197.616C351.432 201.432 351.139 205.249 350.845 209.065C347.323 208.771 343.8 208.477 340.278 208.184C333.233 207.597 327.362 204.368 322.665 198.497C317.969 192.626 311.804 187.93 304.172 184.407C296.54 180.885 285.973 179.123 272.47 179.123C258.967 179.123 247.812 178.243 239.006 176.481C230.2 174.72 221.98 171.785 214.348 167.675C206.716 163.566 199.671 158.282 193.213 151.824C186.755 145.366 182.646 140.082 180.885 135.973C179.123 131.863 177.362 129.808 175.601 129.808C173.84 129.808 169.436 131.569 162.391 135.092C158.869 136.853 155.346 138.614 151.824 140.376C154.172 144.485 156.521 148.595 158.869 152.705C161.217 156.814 163.566 160.924 165.914 165.033C160.924 166.501 155.933 167.969 150.943 169.436C140.963 172.372 132.45 177.068 125.405 183.526C118.36 189.984 113.957 195.562 112.196 200.258C110.434 204.955 106.912 207.597 101.628 208.184C96.3444 208.771 93.1155 205.836 91.9413 199.378C90.7671 192.92 91.0607 187.636 92.8219 183.526C94.5832 179.417 96.9315 176.188 99.8669 173.84C102.802 171.491 104.564 166.795 105.151 159.75C105.738 152.705 107.499 146.54 110.434 141.256C113.37 135.973 117.773 131.276 123.644 127.166C129.515 123.057 136.853 120.708 145.659 120.121C154.466 119.534 160.043 116.305 162.391 110.434C164.74 104.564 167.382 100.16 170.317 97.225C173.252 94.2896 176.481 92.2348 180.004 91.0607C183.526 89.8865 188.517 89.8865 194.975 91.0607ZM795.562 90.18C806.716 90.7671 819.926 93.9961 835.19 99.8669C850.454 105.738 862.196 111.902 870.415 118.36C878.634 124.818 886.266 132.744 893.311 142.137C900.356 151.53 906.521 163.859 911.804 179.123C917.088 194.387 920.023 215.816 920.611 243.409C921.198 271.002 923.252 292.137 926.775 306.814C930.297 321.491 929.417 331.472 924.133 336.755C918.849 342.039 912.685 345.855 905.64 348.204C898.595 350.552 890.376 351.726 880.982 351.726C876.286 351.726 871.589 351.726 866.892 351.726C870.415 347.029 873.937 342.333 877.46 337.636C884.505 328.243 890.376 317.088 895.072 304.172C899.769 291.256 902.411 276.579 902.998 260.141C903.585 243.703 902.117 229.906 898.595 218.751C895.072 207.597 890.963 199.671 886.266 194.975C881.569 190.278 876.873 186.755 872.176 184.407C867.479 182.059 857.205 180.591 841.354 180.004C825.503 179.417 812.587 177.949 802.607 175.601C792.626 173.252 784.407 170.317 777.949 166.795C771.491 163.272 765.327 158.575 759.456 152.705C753.585 146.834 749.476 141.55 747.127 136.853C744.779 132.157 739.202 131.569 730.395 135.092C725.992 136.853 721.589 138.614 717.186 140.376C719.534 144.485 721.883 148.595 724.231 152.705C726.579 156.814 728.928 160.924 731.276 165.033C725.405 167.088 719.534 169.143 713.663 171.198C701.922 175.307 693.115 180.591 687.245 187.049C681.374 193.507 677.264 200.552 674.916 208.184C672.568 215.816 671.393 228.438 671.393 246.051C671.393 263.663 672.274 277.166 674.035 286.56C675.796 295.953 678.732 305.053 682.841 313.859C686.951 322.665 692.235 331.178 698.693 339.397C701.922 343.507 705.151 347.616 708.38 351.726C702.509 351.432 696.638 351.139 690.767 350.845C679.025 350.258 668.458 347.029 659.065 341.159C649.671 335.288 646.736 323.252 650.258 305.053C653.781 286.853 655.836 264.544 656.423 238.125C657.01 211.706 659.945 191.159 665.229 176.481C670.513 161.804 678.145 148.595 688.125 136.853C698.106 125.112 706.031 117.186 711.902 113.076C717.773 108.967 725.405 104.857 734.798 100.748C744.192 96.638 753.879 93.7025 763.859 91.9413C773.84 90.18 784.407 89.593 795.562 90.18ZM531.374 149.182C554.27 150.356 577.46 153.879 600.943 159.75C624.427 165.62 634.994 173.84 632.646 184.407C630.297 194.975 628.83 213.761 628.243 240.767C627.656 267.773 625.014 290.963 620.317 310.337C615.62 329.71 617.969 343.8 627.362 352.607C636.755 361.413 647.616 368.164 659.945 372.861C672.274 377.558 684.016 379.906 695.17 379.906C706.325 379.906 716.305 378.145 725.112 374.622C733.918 371.1 743.605 371.1 754.172 374.622C764.74 378.145 775.894 379.906 787.636 379.906C799.378 379.906 810.239 378.145 820.219 374.622C830.2 371.1 837.538 370.219 842.235 371.98C846.932 373.742 852.802 385.483 859.847 407.205C866.892 428.928 871.589 451.237 873.937 474.133C876.286 497.029 876.873 517.577 875.699 535.777C874.524 553.977 871.589 573.35 866.892 593.898C862.196 614.446 857.499 630.297 852.802 641.452C848.106 652.607 842.528 657.89 836.07 657.303C829.613 656.716 818.751 654.368 803.487 650.258C788.223 646.149 776.481 644.094 768.262 644.094C764.153 644.094 760.043 644.094 755.933 644.094C756.521 640.571 757.108 637.049 757.695 633.526C758.869 626.481 758.869 620.904 757.695 616.795C756.521 612.685 753.585 607.695 748.888 601.824C744.192 595.953 733.959 588.354 729.85 586.593L729.849 441.254C729.849 441.254 730.699 429.037 724.934 421.703C719.169 414.368 710.094 409.775 706.145 410.085L561.626 410.718C561.626 410.718 558.086 380.2 553.389 373.742C548.693 367.284 542.822 362.294 535.777 358.771C528.732 355.249 521.1 353.487 512.881 353.487C504.661 353.487 498.204 354.368 493.507 356.129C488.81 357.89 483.82 361.119 478.536 365.816C473.252 370.513 465.849 410.815 465.849 410.815L318.754 410.598C318.754 410.598 308.658 409.79 300.941 416.465C293.224 423.14 293.519 431.151 293.519 431.151L293.723 482.1C293.723 482.1 293.903 492.75 296.436 494.327C299.623 496.311 306.296 496.315 306.296 496.315L351.472 496.915L352.955 592.89C352.955 592.89 360.411 606.695 362.528 607.805C364.347 608.758 368.068 612.398 379.952 612.881C433.31 615.052 643.235 614.268 643.235 614.268C670.637 612.976 671.7 586.277 671.7 586.277L672.082 497.949L699.172 497.84L698.287 588.129C690.655 594 679.025 606.227 676.677 611.511C674.329 616.795 673.742 624.133 674.916 633.526C676.09 642.92 679.906 651.139 686.364 658.184C692.822 665.229 692.528 672.274 685.483 679.319C678.438 686.364 672.861 694.29 668.751 703.096C664.642 711.902 662 718.947 660.826 724.231C659.652 729.515 659.065 743.605 659.065 766.501C659.065 789.397 657.597 802.02 654.661 804.368C651.726 806.716 649.378 809.945 647.616 814.055C645.855 818.164 644.975 824.035 644.975 831.667C644.975 839.299 645.562 844.29 646.736 846.638C647.323 847.812 647.91 848.986 648.497 850.16C639.397 853.096 630.297 856.031 621.198 858.967C602.998 864.838 583.037 869.241 561.315 872.176C539.593 875.112 513.761 875.405 483.82 873.057C453.879 870.708 429.221 866.599 409.847 860.728C390.474 854.857 380.493 838.712 379.906 812.294C379.319 785.875 377.558 767.675 374.622 757.695C371.687 747.714 367.577 737.734 362.294 727.753C357.01 717.773 348.204 706.325 335.875 693.409C323.546 680.493 310.924 670.513 298.008 663.468C285.092 656.423 272.763 651.432 261.022 648.497C249.28 645.562 236.364 644.094 222.274 644.094C208.184 644.094 196.736 644.975 187.93 646.736C179.123 648.497 171.785 640.278 165.914 622.078C160.043 603.879 155.64 584.505 152.705 563.957C149.769 543.409 148.888 520.219 150.063 494.387C151.237 468.556 153.879 446.834 157.988 429.221C162.098 411.609 166.207 397.519 170.317 386.951C174.427 376.384 181.178 372.568 190.571 375.503C199.965 378.438 210.532 379.906 222.274 379.906C234.016 379.906 244.877 378.438 254.857 375.503C264.838 372.568 273.35 369.045 280.395 364.935C287.44 360.826 295.659 353.781 305.053 343.8C314.446 333.82 321.491 322.959 326.188 311.217C330.885 299.476 336.462 293.311 342.92 292.724C349.378 292.137 354.368 290.963 357.89 289.202C361.413 287.44 365.816 283.037 371.1 275.992C376.384 268.947 379.319 261.315 379.906 253.096C380.493 244.877 379.613 238.712 377.264 234.603C374.916 230.493 374.916 224.916 377.264 217.871C379.613 210.826 380.2 201.726 379.025 190.571C377.851 179.417 387.538 170.611 408.086 164.153C428.634 157.695 448.595 153.292 467.969 150.943C487.342 148.595 508.477 148.008 531.374 149.182ZM209.945 194.975C224.035 200.845 241.061 204.368 261.022 205.542C280.982 206.716 293.898 210.239 299.769 216.11C305.64 221.98 308.869 232.841 309.456 248.693C310.043 264.544 309.162 277.166 306.814 286.56C304.466 295.953 300.063 305.346 293.605 314.74C287.147 324.133 279.515 331.765 270.708 337.636C261.902 343.507 252.509 347.616 242.528 349.965C232.548 352.313 222.274 352.9 211.706 351.726C201.139 350.552 190.865 347.323 180.885 342.039C170.904 336.755 161.804 328.83 153.585 318.262C145.366 307.695 140.082 298.301 137.734 290.082C135.386 281.863 134.505 266.892 135.092 245.17C135.679 223.448 138.614 209.945 143.898 204.661C149.182 199.378 157.988 194.975 170.317 191.452C182.646 187.93 195.855 189.104 209.945 194.975ZM775.307 194.975C789.397 200.845 806.423 204.368 826.384 205.542C846.344 206.716 859.26 210.239 865.131 216.11C871.002 221.98 874.231 233.135 874.818 249.573C875.405 266.012 874.818 278.047 873.057 285.679C871.295 293.311 867.479 301.824 861.609 311.217C855.738 320.611 847.812 328.83 837.832 335.875C827.851 342.92 816.11 347.616 802.607 349.965C789.104 352.313 777.362 352.313 767.382 349.965C757.401 347.616 746.834 342.333 735.679 334.114C724.524 325.894 716.599 317.675 711.902 309.456C707.205 301.237 703.977 293.605 702.215 286.56C700.454 279.515 699.867 265.425 700.454 244.29C701.041 223.155 704.27 209.945 710.141 204.661C716.012 199.378 724.818 194.975 736.56 191.452C748.301 187.93 761.217 189.104 775.307 194.975ZM102.509 235.483C103.683 235.483 104.857 235.483 106.031 235.483C106.031 240.474 106.031 245.464 106.031 250.454C106.031 255.444 106.031 260.434 106.031 265.425C104.564 265.131 103.096 264.838 101.628 264.544C98.6928 263.957 96.0509 262.196 93.7025 259.26C91.3542 256.325 90.18 253.389 90.18 250.454C90.18 247.519 91.6477 244.29 94.5832 240.767C97.5186 237.245 100.16 235.483 102.509 235.483ZM336.755 235.483C338.517 235.777 340.278 236.07 342.039 236.364C345.562 236.951 348.204 238.419 349.965 240.767C351.726 243.115 352.607 246.344 352.607 250.454C352.607 254.564 351.139 258.086 348.204 261.022C345.268 263.957 342.626 265.425 340.278 265.425C339.104 265.425 337.93 265.425 336.755 265.425C336.755 260.434 336.755 255.444 336.755 250.454C336.755 245.464 336.755 240.474 336.755 235.483ZM246.932 281.276C243.409 285.973 239.886 289.202 236.364 290.963C232.841 292.724 224.916 293.898 212.587 294.485C200.258 295.072 194.094 299.769 194.094 308.575C194.094 312.978 194.094 317.382 194.094 321.785C200.552 321.785 207.01 321.785 213.468 321.785C226.384 321.785 237.245 319.73 246.051 315.62C254.857 311.511 261.315 307.401 265.425 303.292C269.534 299.182 272.47 295.072 274.231 290.963C275.112 288.908 275.992 286.853 276.873 284.798C272.763 283.037 268.654 281.276 264.544 279.515C256.325 275.992 250.454 276.579 246.932 281.276ZM812.294 281.276C808.771 285.973 805.249 289.202 801.726 290.963C798.204 292.724 790.278 293.898 777.949 294.485C765.62 295.072 759.456 299.769 759.456 308.575C759.456 312.978 759.456 317.382 759.456 321.785C765.914 321.785 772.372 321.785 778.83 321.785C791.746 321.785 802.313 320.023 810.532 316.501C818.751 312.978 825.503 308.575 830.787 303.292C836.07 298.008 839.299 293.605 840.474 290.082C841.648 286.56 838.125 283.037 829.906 279.515C821.687 275.992 815.816 276.579 812.294 281.276ZM519.926 383.429C526.971 385.777 531.667 391.061 534.016 399.28C535.19 403.389 536.364 407.499 537.538 411.609C529.025 411.609 520.513 411.609 512 411.609C503.487 411.609 494.975 411.609 486.462 411.609C487.636 407.793 488.81 403.977 489.984 400.16C492.333 392.528 496.149 387.245 501.432 384.309C506.716 381.374 512.881 381.08 519.926 383.429ZM322.665 438.027C385.777 438.027 701.423 439.727 701.423 439.727L701.087 467.719C701.087 467.719 386.07 469.436 322.665 469.73C322.665 464.446 322.665 443.311 322.665 438.027ZM380.787 496.149C424.524 496.149 468.262 496.149 512 496.149C599.476 496.149 641.569 498.703 641.569 498.703L642.475 583.961L380.787 585.973C380.787 585.973 380.787 511.119 380.787 496.149ZM718.947 613.272C722.47 613.859 725.405 615.62 727.753 618.556C730.102 621.491 730.982 625.307 730.395 630.004C729.808 634.701 727.753 638.223 724.231 640.571C720.708 642.92 717.186 643.8 713.663 643.213C710.141 642.626 707.205 641.159 704.857 638.81C702.509 636.462 701.335 632.939 701.335 628.243C701.335 623.546 703.389 619.73 707.499 616.795C711.609 613.859 715.425 612.685 718.947 613.272ZM236.364 673.155C251.628 674.916 265.131 678.438 276.873 683.722C288.614 689.006 298.888 695.464 307.695 703.096C316.501 710.728 325.014 721.295 333.233 734.798C341.452 748.301 346.736 759.456 349.084 768.262C351.432 777.068 352.607 802.607 352.607 844.877C352.607 887.147 351.432 910.63 349.084 915.327C346.736 920.023 342.92 924.133 337.636 927.656C332.352 931.178 326.775 933.233 320.904 933.82C315.033 934.407 310.337 934.114 306.814 932.939C305.053 932.352 303.292 931.765 301.53 931.178C305.053 926.775 308.575 922.372 312.098 917.969C319.143 909.162 325.014 898.008 329.71 884.505C334.407 871.002 336.755 854.27 336.755 834.309C336.755 814.348 334.994 800.552 331.472 792.92C327.949 785.288 323.546 779.123 318.262 774.427C312.978 769.73 307.401 766.207 301.53 763.859C295.659 761.511 285.679 760.337 271.589 760.337C257.499 760.337 244.877 758.869 233.722 755.933C222.568 752.998 212.587 748.301 203.781 741.843C194.975 735.386 188.517 728.634 184.407 721.589C180.297 714.544 173.84 712.783 165.033 716.305C160.63 718.067 156.227 719.828 151.824 721.589C154.172 725.699 156.521 729.808 158.869 733.918C161.217 738.027 163.566 742.137 165.914 746.247C161.511 747.421 157.108 748.595 152.705 749.769C143.898 752.117 136.853 755.053 131.569 758.575C126.286 762.098 121.295 767.382 116.599 774.427C111.902 781.472 108.967 787.342 107.793 792.039C106.618 796.736 106.618 812 107.793 837.832C108.967 863.663 111.315 880.982 114.838 889.789C118.36 898.595 123.644 907.695 130.689 917.088C134.211 921.785 137.734 926.481 141.256 931.178C138.027 931.765 134.798 932.352 131.569 932.939C125.112 934.114 119.828 934.114 115.718 932.939C111.609 931.765 106.618 927.949 100.748 921.491C94.8767 915.033 91.6477 891.256 91.0607 850.16C90.4736 809.065 91.6477 782.646 94.5832 770.904C97.5186 759.162 100.748 749.769 104.27 742.724C107.793 735.679 114.544 726.579 124.524 715.425C134.505 704.27 142.137 696.932 147.421 693.409C152.705 689.886 160.043 686.07 169.436 681.961C178.83 677.851 188.517 674.916 198.497 673.155C208.477 671.393 221.1 671.393 236.364 673.155ZM803.487 678.438C834.016 683.722 854.564 686.07 865.131 685.483C875.699 684.896 888.321 682.841 902.998 679.319C910.337 677.558 917.675 675.796 925.014 674.035C926.775 684.603 928.536 695.17 930.297 705.738C933.82 726.873 934.407 746.247 932.059 763.859C929.71 781.472 925.601 789.984 919.73 789.397C913.859 788.81 908.575 785.581 903.879 779.71C899.182 773.84 893.018 769.143 885.386 765.62C877.753 762.098 866.892 760.337 852.802 760.337C838.712 760.337 827.558 759.456 819.339 757.695C811.119 755.933 803.194 752.998 795.562 748.888C787.93 744.779 780.885 739.495 774.427 733.037C767.969 726.579 763.859 721.295 762.098 717.186C760.337 713.076 755.053 712.783 746.247 716.305C741.843 718.067 737.44 719.828 733.037 721.589C735.386 725.699 737.734 729.808 740.082 733.918C742.431 738.027 744.779 742.137 747.127 746.247C741.256 748.301 735.386 750.356 729.515 752.411C717.773 756.521 709.554 760.924 704.857 765.62C700.16 770.317 696.932 775.014 695.17 779.71C693.409 784.407 691.354 787.049 689.006 787.636C687.832 787.93 686.658 788.223 685.483 788.517C685.777 778.83 686.07 769.143 686.364 759.456C686.951 740.082 689.006 726.286 692.528 718.067C696.051 709.847 701.628 701.922 709.26 694.29C716.892 686.658 726.873 680.787 739.202 676.677C751.53 672.568 772.959 673.155 803.487 678.438ZM209.065 776.188C222.568 782.059 239.593 785.581 260.141 786.755C280.689 787.93 293.898 791.452 299.769 797.323C305.64 803.194 308.869 814.055 309.456 829.906C310.043 845.757 309.162 858.38 306.814 867.773C304.466 877.166 299.769 886.853 292.724 896.834C285.679 906.814 278.047 914.446 269.828 919.73C261.609 925.014 252.802 928.83 243.409 931.178C234.016 933.526 222.861 933.82 209.945 932.059C197.029 930.297 186.462 927.068 178.243 922.372C170.023 917.675 161.804 910.043 153.585 899.476C145.366 888.908 140.082 879.515 137.734 871.295C135.386 863.076 134.505 848.106 135.092 826.384C135.679 804.661 138.908 791.159 144.779 785.875C150.65 780.591 159.456 776.188 171.198 772.665C182.939 769.143 195.562 770.317 209.065 776.188ZM790.278 776.188C803.781 782.059 820.806 785.581 841.354 786.755C861.902 787.93 875.112 791.452 880.982 797.323C886.853 803.194 890.082 814.348 890.669 830.787C891.256 847.225 890.376 859.847 888.027 868.654C885.679 877.46 880.982 886.853 873.937 896.834C866.892 906.814 857.793 915.033 846.638 921.491C835.483 927.949 824.035 931.765 812.294 932.939C800.552 934.114 787.93 932.352 774.427 927.656C760.924 922.959 750.943 917.675 744.485 911.804C738.027 905.933 732.157 898.301 726.873 888.908C721.589 879.515 718.36 872.176 717.186 866.892C716.012 861.609 715.718 848.106 716.305 826.384C716.892 804.661 720.121 791.159 725.992 785.875C731.863 780.591 740.669 776.188 752.411 772.665C764.153 769.143 776.775 770.317 790.278 776.188ZM684.603 816.697C685.483 816.697 686.364 816.697 687.245 816.697C687.245 821.687 687.245 826.677 687.245 831.667C687.245 836.658 687.245 841.648 687.245 846.638C686.07 846.638 684.896 846.638 683.722 846.638C681.374 846.638 678.732 844.877 675.796 841.354C672.861 837.832 671.687 834.016 672.274 829.906C672.861 825.796 674.622 822.568 677.558 820.219C680.493 817.871 682.841 816.697 684.603 816.697ZM917.969 816.697C919.73 816.99 921.491 817.284 923.252 817.577C926.775 818.164 929.71 820.513 932.059 824.622C934.407 828.732 935.288 832.254 934.701 835.19C934.114 838.125 932.352 840.767 929.417 843.115C926.481 845.464 923.84 846.638 921.491 846.638C920.317 846.638 919.143 846.638 917.969 846.638C917.969 841.648 917.969 836.658 917.969 831.667C917.969 826.677 917.969 821.687 917.969 816.697ZM246.932 862.489C243.409 867.186 239.886 870.415 236.364 872.176C232.841 873.937 224.916 875.112 212.587 875.699C200.258 876.286 194.094 880.982 194.094 889.789C194.094 894.192 194.094 898.595 194.094 902.998C200.552 902.998 207.01 902.998 213.468 902.998C226.384 902.998 236.951 901.237 245.17 897.714C253.389 894.192 260.141 889.789 265.425 884.505C270.708 879.221 273.937 874.818 275.112 871.295C276.286 867.773 272.763 864.25 264.544 860.728C256.325 857.205 250.454 857.793 246.932 862.489ZM828.145 862.489C824.622 867.186 821.1 870.415 817.577 872.176C814.055 873.937 806.129 875.112 793.8 875.699C781.472 876.286 775.307 880.982 775.307 889.789C775.307 894.192 775.307 898.595 775.307 902.998C781.765 902.998 788.223 902.998 794.681 902.998C807.597 902.998 818.164 901.237 826.384 897.714C834.603 894.192 841.354 889.789 846.638 884.505C851.922 879.221 855.151 874.818 856.325 871.295C857.499 867.773 853.977 864.25 845.757 860.728C837.538 857.205 831.667 857.793 828.145 862.489Z" fill="#000000" fill-rule="nonzero" opacity="1" stroke="none" vectornator:layerName="Curve 1"/>
</g>
</svg>
